<?xml version="1.0" standalone="no"?>
<!DOCTYPE svg PUBLIC "-//W3C//DTD SVG 20010904//EN"
 "http://www.w3.org/TR/2001/REC-SVG-20010904/DTD/svg10.dtd">
<svg version="1.0" xmlns="http://www.w3.org/2000/svg"
 width="512.000000pt" height="512.000000pt" viewBox="0 0 512.000000 512.000000"
 preserveAspectRatio="xMidYMid meet">
<metadata>
Created by potrace 1.11, written by Peter Selinger 2001-2013
</metadata>
<g transform="translate(0.000000,512.000000) scale(0.100000,-0.100000)"
fill="#000000" stroke="none">
<path d="M898 5105 c-280 -44 -534 -203 -703 -440 -57 -79 -128 -228 -154
-322 -42 -152 -42 -188 -39 -1843 4 -1732 0 -1608 61 -1785 110 -321 377 -573
709 -669 162 -47 186 -47 1853 -44 1566 4 1570 4 1657 25 218 54 359 134 518
293 161 161 243 308 293 525 21 89 21 109 25 1655 2 1018 -1 1598 -7 1660 -44
412 -318 762 -700 895 -179 63 -51 59 -1816 61 -1318 2 -1626 0 -1697 -11z
m2467 -1060 c93 -20 155 -112 155 -231 l0 -72 163 -4 c136 -3 169 -7 207 -24
67 -31 106 -68 137 -132 l28 -57 0 -1126 0 -1125 -30 -59 c-19 -37 -46 -72
-73 -92 -88 -67 -15 -64 -1413 -61 -1259 3 -1264 3 -1309 24 -67 31 -106 68
-137 132 l-28 57 0 1125 0 1125 21 46 c28 59 85 116 143 142 38 17 73 21 209
25 l162 5 0 71 c0 83 21 135 71 183 43 41 77 53 145 53 66 0 120 -25 162 -75
37 -46 52 -96 52 -176 l0 -64 530 3 530 2 0 62 c0 77 15 128 52 173 33 40 76
65 128 76 35 7 40 6 95 -6z"/>
<path d="M1739 3911 l-29 -29 0 -202 0 -202 29 -29 c53 -52 147 -34 170 33 6
18 11 107 11 205 0 224 -13 253 -110 253 -33 0 -48 -6 -71 -29z"/>
<path d="M3243 3922 c-12 -9 -27 -30 -32 -45 -14 -37 -14 -355 0 -395 14 -40
49 -62 99 -62 33 0 48 6 71 29 l29 29 0 202 0 202 -29 29 c-24 23 -38 29 -73
29 -25 0 -52 -8 -65 -18z"/>
<path d="M1252 3600 c-64 -39 -72 -66 -72 -242 l0 -158 1380 0 1380 0 0 158
c0 176 -8 203 -72 242 -29 18 -51 20 -190 20 l-158 0 0 -73 c0 -58 -5 -83 -25
-124 -70 -139 -254 -158 -354 -36 -38 46 -51 89 -51 171 l0 62 -530 0 -530 0
0 -61 c0 -78 -15 -129 -52 -174 -41 -49 -98 -76 -162 -76 -64 0 -102 14 -145
54 -51 48 -71 100 -71 185 l0 72 -157 0 c-140 0 -162 -2 -191 -20z"/>
<path d="M1180 2182 c5 -853 6 -910 23 -935 10 -16 32 -37 50 -47 31 -19 61
-20 1307 -20 1255 0 1276 0 1308 20 18 11 41 34 52 52 19 32 20 53 20 936 l0
902 -1382 0 -1383 0 5 -908z m2083 794 c18 -7 44 -26 58 -42 25 -27 162 -243
195 -306 26 -50 16 -106 -28 -154 -18 -21 -18 -22 62 -154 91 -150 98 -181 55
-244 -14 -20 -25 -39 -25 -42 0 -3 33 -63 74 -132 40 -70 76 -139 79 -153 10
-39 -10 -95 -44 -123 -30 -25 -34 -26 -180 -26 l-149 0 0 -144 c0 -118 -3
-147 -16 -160 -23 -23 -265 -23 -288 0 -13 13 -16 42 -16 160 l0 144 -144 0
c-132 0 -146 2 -176 22 -38 26 -63 86 -53 127 3 14 39 83 80 153 40 69 73 129
73 132 0 3 -11 22 -25 42 -43 63 -36 94 55 244 81 132 81 133 62 154 -42 46
-54 104 -31 149 32 61 175 286 198 311 49 53 120 70 184 42z m-1476 -132 c122
-75 166 -218 109 -356 -34 -84 -60 -111 -183 -193 -137 -93 -185 -147 -207
-237 l-6 -28 192 0 c207 0 228 -5 228 -56 0 -52 -12 -55 -273 -52 l-242 3 -12
26 c-17 36 0 137 37 215 38 79 105 146 211 211 46 28 94 62 106 75 33 35 63
108 63 157 0 119 -126 198 -230 142 -46 -24 -70 -59 -81 -116 -5 -26 -14 -54
-20 -61 -15 -19 -64 -18 -79 1 -17 20 -14 96 4 139 22 52 86 117 141 143 71
34 174 29 242 -13z m757 20 c21 -20 20 -53 -1 -76 -14 -16 -34 -18 -198 -18
-127 0 -185 -4 -193 -12 -17 -17 -17 -272 1 -285 6 -6 55 -13 108 -16 110 -6
150 -20 209 -74 148 -132 108 -363 -77 -445 -36 -16 -63 -18 -195 -16 -150 3
-153 3 -165 27 -12 25 -3 57 21 73 6 4 72 8 147 8 125 0 139 2 170 23 101 68
105 199 9 265 -27 18 -46 22 -114 22 -103 0 -152 14 -192 54 -46 46 -57 99
-52 247 3 116 6 130 30 166 44 67 66 73 285 73 161 0 194 -3 207 -16z m-6
-1060 c14 -10 22 -26 22 -44 0 -61 11 -60 -588 -60 l-543 0 -24 25 c-14 13
-25 29 -25 35 0 6 11 22 25 35 l24 25 543 0 c476 0 546 -2 566 -16z m-1072
-422 c6 -4 16 -17 23 -30 10 -19 10 -28 -4 -48 -35 -54 -124 -9 -94 48 14 27
28 38 49 38 8 0 20 -4 26 -8z m224 -12 c24 -24 25 -47 3 -72 -32 -35 -93 -13
-93 34 0 27 28 58 52 58 10 0 27 -9 38 -20z m212 3 c35 -32 13 -93 -34 -93
-27 0 -58 28 -58 52 0 23 34 58 57 58 9 0 25 -7 35 -17z"/>
<path d="M3178 2873 c-15 -4 -177 -252 -194 -298 -6 -14 -2 -16 32 -10 144 24
237 97 259 203 5 24 1 41 -15 67 -12 19 -25 35 -30 35 -5 0 -14 2 -22 4 -7 2
-21 2 -30 -1z"/>
<path d="M3350 2651 c-6 -13 -28 -40 -47 -62 l-35 -39 70 0 c39 0 74 5 77 10
4 6 -7 33 -23 62 -29 49 -30 50 -42 29z"/>
<path d="M2969 2303 c-46 -76 -86 -144 -88 -152 -5 -20 146 -8 219 17 161 56
240 132 240 232 l0 40 -144 0 -143 0 -84 -137z"/>
<path d="M3414 2259 c-8 -17 -35 -51 -60 -75 l-43 -44 104 0 c58 0 105 3 105
7 0 9 -80 143 -85 143 -3 0 -12 -14 -21 -31z"/>
<path d="M2861 1879 c-44 -78 -81 -148 -81 -157 0 -12 12 -14 84 -8 172 14
371 85 470 167 36 30 96 112 96 131 0 4 -110 8 -244 8 l-243 0 -82 -141z"/>
<path d="M3481 1875 c-36 -50 -95 -101 -161 -139 l-45 -26 173 0 c123 0 172 3
172 12 0 10 -47 99 -90 170 l-17 28 -32 -45z"/>
<path d="M3150 1495 l0 -105 50 0 50 0 0 105 0 105 -50 0 -50 0 0 -105z"/>
</g>
</svg>
